# xmcd
#
# Track frame offsets:
#	150
#	46842
#	91552
#	138867
#
# Disc length: 2563 seconds
#
# Revision: 1011781991
# Processed by: cddbd v1.5.2PL0 Copyright (c) Steve Scherf et al.
# Submitted via: EZCDAudioConverter 8.0.2.1
#
DISCID=220a0104
DTITLE=Trish, Sỹ Đan, Shayla - Technowave Remix
DYEAR=1990
DGENRE=Electronic
TTITLE0=Part 1. Technowave Remix
TTITLE1=Part 2. Technowave Remix
TTITLE2=Part 3. Technowave Remix
TTITLE3=Part 4. Technowave Remix
EXTD=
EXTT0=
EXTT1=
EXTT2=
EXTT3=
PLAYORDER=
